<svg xml:space="preserve" xmlns="http://www.w3.org/2000/svg" viewBox="0 0 337 124.28507"><path style="fill: currentColor" d="M566.53201 513.63847c-1.88364-1.37735-1.94113-3.17161-1.94113-60.58061s.0575-59.20326 1.94113-60.58061c2.84659-2.08148 52.26847-2.08276 55.11774-.001 1.81313 1.32445 1.96095 3.00592 2.24164 25.5l.30052 24.08201 33.44949-.0004c22.55486-.00027 30.44765 0 33.33948 0v-8.9996h8.87172c8.31989 0 9.04503-.16866 11.31397-2.63148 1.33337-1.44732 5.12431-3.92197 8.42431-5.49922 8.53319-4.07847 18.46681-4.07847 27 0 3.3 1.57725 7.09094 4.0519 8.42431 5.49922 2.25842 2.45141 3.01493 2.66409 11.05413 2.63148l8.64356-.0351c0 3.3701-.005 5.68475 0 8.53506l33.68922.2633 33.68878.2633v-23.5133c0-22.17997.11341-23.62671 2-25.5133 1.89668-1.89668 3.33333-2 27.80887-2 20.70834 0 26.19249.28044 27.75 1.41906 1.88364 1.37703 1.94113 3.17116 1.94113 60.58005 0 57.40858-.0575 59.20305-1.94113 60.58094-1.55812 1.13978-7.03348 1.41995-27.75 1.41995-24.47554 0-25.91219-.10332-27.80887-2-1.88412-1.88412-2-3.33333-2-25.0133v-23.0133l-33.65183.2633-33.72617.2633c-.0655 3 .0218 8 0 9l-8.24215.0518c-7.3631.0463-8.42515.30848-11.39256 2.80539-1.79986 1.51448-5.57082 3.94793-8.37992 5.40766-4.38591 2.27913-6.30823 2.64793-13.60744 2.61065-9.48145-.0484-13.05129-1.24162-20.32433-6.79326-4.27358-3.2621-5.14869-3.51966-12.88038-3.79106l-8.90522.0594v-9.85099l-33.39339.00036h-33.39383l-.30138 23.58208c-.28113 21.99838-.43173 23.67731-2.2425 25-2.84929 2.0813-52.27119 2.07998-55.11774-.001z" transform="translate(-564.59088 -390.91553)"/></svg>